<svg id="Layer_1" data-name="Layer 1" xmlns="http://www.w3.org/2000/svg" xmlns:xlink="http://www.w3.org/1999/xlink" viewBox="0 0 1296 1296"><defs><style>.cls-1{fill:url(#linear-gradient);}.cls-2{fill:url(#linear-gradient-2);}.cls-3,.cls-4,.cls-5{fill:#333;}.cls-4{font-size:178.44px;}.cls-4,.cls-5{font-family:TwCenMT-Regular, Tw Cen MT;}.cls-5{font-size:103.84px;}</style><linearGradient id="linear-gradient" x1="233.26" y1="414.46" x2="828.61" y2="414.46" gradientUnits="userSpaceOnUse"><stop offset="0" stop-color="#ff7300"/><stop offset="0.16" stop-color="#ff7c07"/><stop offset="0.43" stop-color="#ff961c"/><stop offset="0.77" stop-color="#ffbf3c"/><stop offset="1" stop-color="#ffde55"/></linearGradient><linearGradient id="linear-gradient-2" x1="642.74" y1="542.44" x2="1030.69" y2="542.44" xlink:href="#linear-gradient"/></defs><path class="cls-1" d="M631.79,250h0V781.82h0c-111.41,0-201.71-90.31-201.71-201.71V250H233.26c0-112.08,90.85-202.93,202.93-202.93h386.3a6.11,6.11,0,0,1,6.12,6.11h0C828.61,161.92,740.49,250,631.79,250Z"/><path class="cls-2" d="M771,435.3h0V781.82h0A131.43,131.43,0,0,0,902.43,650.38V435.3h128.26A132.24,132.24,0,0,0,898.45,303.07H646.73a4,4,0,0,0-4,4h0A128.25,128.25,0,0,0,771,435.3Z"/><path class="cls-3" d="M267.87,1220.36H263.2a47.33,47.33,0,0,0-11.38,1.21c-4.11,1-6.17,2.49-6.17,4.4a19.34,19.34,0,0,0,.89,5.54l1.8,6a19,19,0,0,1,.92,5.54,15.92,15.92,0,0,1-.21,2.7,31.83,31.83,0,0,1-.77,3.18c-.68-2.17-1.34-4.34-2-6.51q-1.87-6.21-2.78-9.38a36.25,36.25,0,0,1-1.42-6q0-5,2.1-7.71a12.34,12.34,0,0,1,6.46-4,61.34,61.34,0,0,1,10.4-1.73q-2.48-2.52-3.06-3a6.51,6.51,0,0,0-4-1.57,4.43,4.43,0,0,0-2.48.78,12.94,12.94,0,0,0-2.27,2.16l-1.81-1.14a17.48,17.48,0,0,1,2.67-4.71,7.46,7.46,0,0,1,5.85-2.9,8.19,8.19,0,0,1,4.87,1.8,22.45,22.45,0,0,1,4.08,4.16c.68.87,1.69,2.33,3,4.4Z"/><path class="cls-3" d="M275.17,1231.86v-8h8.05v8Z"/><path class="cls-3" d="M317.37,1220.36H312.7a47.42,47.42,0,0,0-11.39,1.21c-4.11,1-6.16,2.49-6.16,4.4a19.31,19.31,0,0,0,.88,5.54q.89,2.94,1.81,6a19.29,19.29,0,0,1,.92,5.54,15.92,15.92,0,0,1-.21,2.7c-.15.82-.4,1.88-.77,3.18q-1-3.26-2-6.51-1.89-6.21-2.79-9.38a36.85,36.85,0,0,1-1.41-6q0-5,2.1-7.71a12.35,12.35,0,0,1,6.45-4,61.68,61.68,0,0,1,10.41-1.73q-2.48-2.52-3.06-3a6.54,6.54,0,0,0-4.05-1.57,4.4,4.4,0,0,0-2.47.78,12.59,12.59,0,0,0-2.28,2.16l-1.8-1.14a17,17,0,0,1,2.67-4.71,7.42,7.42,0,0,1,5.84-2.9,8.14,8.14,0,0,1,4.87,1.8,21.84,21.84,0,0,1,4.08,4.16c.68.87,1.69,2.33,3,4.4Z"/><path class="cls-3" d="M324.67,1231.86v-8h8v8Z"/><path class="cls-3" d="M366.82,1220.36H349.24a6.69,6.69,0,0,1-4-1.3,3.72,3.72,0,0,1-1.78-3.06,20.38,20.38,0,0,1,.16-2.71,17.51,17.51,0,0,1,.58-2.67h.91a3.7,3.7,0,0,0,1.57,2.32,4.89,4.89,0,0,0,2.59.59h15.19a27.57,27.57,0,0,0-2-11.31,12.71,12.71,0,0,0-8.13-7.1l.59-7.62a19.09,19.09,0,0,1,9.62,10.64q2.26,5.89,2.27,15.39Zm-10.4-46.16-3.06,5.69-6.36-3.3,2.91-5.73Z"/><path class="cls-3" d="M419.3,1220.36h-5.61q-2.83,0-5-4.83a40.38,40.38,0,0,1-2.59-9.3,9.32,9.32,0,0,1-3,3.41,6.7,6.7,0,0,1-3.81,1.22,38.32,38.32,0,0,1-7.51-.61c-2-.4-3-.92-3-1.55q0-3.37,4.4-7.48a41.7,41.7,0,0,1,11-7.16q-.07-.32-.33-1.65a13.52,13.52,0,0,1-.26-1.65,6.34,6.34,0,0,1,.9-3,16.51,16.51,0,0,1,2-2.75c.26,1.62.53,3.19.8,4.71s.6,3.09,1,4.71l1.18,6.75a79.61,79.61,0,0,0,1.77,8.25c.81,2.72,1.64,4.08,2.51,4.08h5.61Zm-19-43.3-2.94,5.62-6.48-3.34,3.06-5.65Zm5.26,25.75-.74-4.28a25,25,0,0,0-5.38,2.54,11.09,11.09,0,0,0-3.3,3.47,8.51,8.51,0,0,0,1.93.55,18.09,18.09,0,0,0,3,.2A6,6,0,0,0,405.6,1202.81Zm3.69-29.4-2.9,5.69-6.44-3.29,3-5.69Z"/><path class="cls-3" d="M438.93,1220.36H416.55v-6.83h19.51a17.7,17.7,0,0,0-1.1-7.07,20.81,20.81,0,0,0-3.69-4.86l3.07-6.4a22.37,22.37,0,0,1,3.53,5.57c.7,2,1.06,5.35,1.06,10Zm-9.3,11.42-2.95,5.61-6.48-3.33,3.07-5.66Zm8.94-3.65-2.9,5.69-6.44-3.3,3-5.69Z"/><path class="cls-3" d="M458.55,1220.36H436.18v-6.83h19.51a17.88,17.88,0,0,0-1.1-7.07,21.41,21.41,0,0,0-3.69-4.86l3.06-6.4a22.37,22.37,0,0,1,3.53,5.57c.71,2,1.06,5.35,1.06,10Zm-3.1-36.27-3.06,5.69-6.36-3.3,2.91-5.73Z"/><path class="cls-3" d="M479.67,1220.36H455.81v-6.83h13.46a40.4,40.4,0,0,0,4.14-.18,21.3,21.3,0,0,0,3.71-.76c-4.5-.66-7.42-1.27-8.75-1.85a6.81,6.81,0,0,1-4.52-6.67,15,15,0,0,1,2.16-7.77q2.43-4.12,5.93-4.12c2.67,0,4.69,1.7,6.08,5.1a25.12,25.12,0,0,1,1.65,9.54Zm-3.49-41.8-3.06,5.69-6.36-3.3,2.9-5.73Zm0,28.1a24.92,24.92,0,0,0-1.73-4.67c-1.07-2-2.37-3-3.89-3a2.44,2.44,0,0,0-1.88.87,2.92,2.92,0,0,0-.78,2,4,4,0,0,0,3.1,4A31.08,31.08,0,0,0,476.14,1206.66Z"/><path class="cls-3" d="M496.31,1220.36H476.92v-6.83h15.43l-4.67-33.29-2-1a25.64,25.64,0,0,1,.47-5.08,23.37,23.37,0,0,1,1.41-4.61l.59.43c0,1.52.85,2.65,2.55,3.41,1.31.53,2.63,1,4,1.57a30.14,30.14,0,0,1-.31,4.2,15.62,15.62,0,0,1-.75,3.34l-1.88-.63,4.63,30.77Z"/><path class="cls-3" d="M509.58,1210.35a16.69,16.69,0,0,1-1.14,6.08,38.73,38.73,0,0,1-2.55,5l-.71-.39c.08-.76.15-1.64.22-2.63s.1-1.67.1-2q0-4.08-.65-11.4t-1.55-15.29c-.37-3.22-.77-6.5-1.22-9.85.53-1.15,1.12-2.39,1.79-3.73s1.3-2.59,1.9-3.77q.63,4.49,1.59,12.25t1.51,14Q509.57,1206.38,509.58,1210.35Z"/><path class="cls-3" d="M592.64,1220.36H555.19q-7.53,0-12-2.63-5.61-3.3-5.61-10.32a18.82,18.82,0,0,1,1.64-7.46q.6-1.38,2.83-5.22l1.18.74c-.58,1.21-1.14,2.41-1.69,3.61a13.39,13.39,0,0,0-1.14,5q0,4.64,4.87,7.18a23.65,23.65,0,0,0,11,2.28h33.25v-1.06a20.2,20.2,0,0,0-1.07-7.16,10.66,10.66,0,0,0-3.61-4.73l3-6.4c1.15,1.44,1.84,2.34,2.08,2.71q2.67,4.39,2.67,12.79Zm-27.44-32-3,5.61-6.47-3.33,3.06-5.66Zm8.95-3.65-2.91,5.69-6.43-3.3,3-5.69Z"/><path class="cls-3" d="M611.08,1220.36h-5.49a5.07,5.07,0,0,1-4.28-2.16,13.86,13.86,0,0,1-2.14-5.61,79.33,79.33,0,0,1-1.12-9.19c-.15-3-.32-6-.49-9.1a65.59,65.59,0,0,0-.67-7.09,15.77,15.77,0,0,0-1.11-3.94,10.3,10.3,0,0,0-2.4-3.3l4.83-7.62a53.36,53.36,0,0,1,2.16,11.27q.39,4.08.78,19.31.71,7,2,9a3,3,0,0,0,2.4,1.65h5.49Z"/><path class="cls-3" d="M642.76,1220.36h-4.08a17.72,17.72,0,0,1-5.93-1.18,22.3,22.3,0,0,1-6.71-3.77,13.42,13.42,0,0,1-4.65,3.87,17.41,17.41,0,0,1-6.93,1.08h-6.12v-6.83h6a11.4,11.4,0,0,0,6.36-1.81,14.51,14.51,0,0,0,3.93-4,25,25,0,0,1,5.88-6,17,17,0,0,1,5.77-2.9,67.43,67.43,0,0,1,4.32,7.42,17.85,17.85,0,0,1,2.16,7.26Zm-4.51-7.73a21.72,21.72,0,0,0-1.57-4.48,23.53,23.53,0,0,0-2.4-3.81,6.85,6.85,0,0,0-3.18,1.77,14.37,14.37,0,0,0-2,2.79,12.8,12.8,0,0,0,4,2.74,15.88,15.88,0,0,0,4.85,1.5Z"/><path class="cls-3" d="M669.88,1220.36H652.3a6.69,6.69,0,0,1-4-1.3,3.72,3.72,0,0,1-1.78-3.06,20.38,20.38,0,0,1,.16-2.71,17.51,17.51,0,0,1,.58-2.67h.91a3.7,3.7,0,0,0,1.57,2.32,4.89,4.89,0,0,0,2.59.59h15.19a27.57,27.57,0,0,0-2-11.31,12.71,12.71,0,0,0-8.13-7.1l.59-7.62a19.09,19.09,0,0,1,9.62,10.64q2.26,5.89,2.27,15.39Z"/><path class="cls-3" d="M712.47,1220.36H667.13v-6.83h32c-2.66-2.07-4.92-3.68-6.75-4.83a30.34,30.34,0,0,0-6.24-3.14,19.63,19.63,0,0,0-6.44-1.1,29.19,29.19,0,0,0-4,.28,12.63,12.63,0,0,1,3-4.67,9.31,9.31,0,0,1,6.75-2.56q4,0,9.46,3.93,2.7,2,8.83,7.46c3.16,2.85,5.31,4.39,6.43,4.63h2.36Zm-18.76-36.54-3.06,5.69-6.36-3.3,2.9-5.73Z"/><path class="cls-3" d="M729.11,1220.36H709.72v-6.83h15.43l-4.67-33.29-2-1a25.64,25.64,0,0,1,.47-5.08,23.37,23.37,0,0,1,1.41-4.61l.59.43c0,1.52.85,2.65,2.55,3.41,1.31.53,2.63,1,4,1.57a30.14,30.14,0,0,1-.31,4.2,15.62,15.62,0,0,1-.75,3.34l-1.88-.63,4.63,30.77Z"/><path class="cls-3" d="M745.75,1220.36H726.36v-6.83h15.43l-4.67-33.29-2-1a26.42,26.42,0,0,1,.47-5.08,23.37,23.37,0,0,1,1.41-4.61l.59.43c0,1.52.85,2.65,2.55,3.41,1.31.53,2.63,1,4,1.57a30.22,30.22,0,0,1-.32,4.2,16.38,16.38,0,0,1-.74,3.34l-1.89-.63,4.63,30.77Z"/><path class="cls-3" d="M825.44,1220.36H788q-7.53,0-12-2.63-5.61-3.3-5.61-10.32A18.82,18.82,0,0,1,772,1200q.6-1.38,2.83-5.22l1.18.74c-.58,1.21-1.14,2.41-1.69,3.61a13.39,13.39,0,0,0-1.14,5q0,4.64,4.87,7.18a23.65,23.65,0,0,0,11,2.28h33.25v-1.06a20.2,20.2,0,0,0-1.07-7.16,10.66,10.66,0,0,0-3.61-4.73l3-6.4c1.15,1.44,1.84,2.34,2.08,2.71q2.67,4.39,2.67,12.79Zm-27.44-32-3,5.61-6.47-3.33,3.06-5.66Zm9-3.65-2.91,5.69-6.43-3.3,3-5.69Z"/><path class="cls-3" d="M868.1,1220.36h-3a12.12,12.12,0,0,1-4.32-.69,11.47,11.47,0,0,1-3.3-1.94,11.5,11.5,0,0,1-3.21,1.92,17.14,17.14,0,0,1-5.5.71H846.2a11.16,11.16,0,0,1-4.08-.79,22.41,22.41,0,0,1-3.3-1.68,13.1,13.1,0,0,1-3.45,1.94,17.68,17.68,0,0,1-5.11.53h-7.57v-6.83h7.57a13.38,13.38,0,0,0,4.56-.55,3.52,3.52,0,0,0,2.27-3.61c0-.76,0-1.52-.11-2.28a22.83,22.83,0,0,0-.44-2.55l1.61-2.36a54.39,54.39,0,0,0,1.81,5.26,13.64,13.64,0,0,0,2.75,4.32,5.94,5.94,0,0,0,4.31,1.77h2.63a8.27,8.27,0,0,0,4.36-.9,3.6,3.6,0,0,0,1.57-3.26,16.5,16.5,0,0,0-.16-2.36c-.1-.76-.25-1.58-.43-2.47l1.65-2.36.82,3.69c.71,2.91,1.57,4.92,2.59,6.05a4.63,4.63,0,0,0,3.62,1.49,2.31,2.31,0,0,0,1.7-.65,2.21,2.21,0,0,0,.65-1.67,8.44,8.44,0,0,0-1.61-4.63q-.27-.39-1.92-2.55l2.55-4.28a19.09,19.09,0,0,1,2.2,4.2,24,24,0,0,1,.86,7.11Z"/><path class="cls-3" d="M907.39,1220.36q0,4.32-3.69,9a30,30,0,0,1-8,7q-4.55,2.84-7.49,2.83a23.86,23.86,0,0,1-5.85-.79,50.17,50.17,0,0,1-5.73-1.84c-1.89-.71-3.76-1.41-5.61-2.12l.66-1.57q2.6.51,5.4,1a28,28,0,0,0,5.08.53,20.6,20.6,0,0,0,10.48-3.22,30,30,0,0,0,8.44-7.44q3.49-4.49,3.5-8.1a14,14,0,0,0-1.81-6.52,28.51,28.51,0,0,0-4.08-5.65l2.24-6.16a22.27,22.27,0,0,1,4.74,6,16.22,16.22,0,0,1,1.73,7.54Z"/><path class="cls-3" d="M927,1220.36H904.64v-6.83h19.51a17.7,17.7,0,0,0-1.1-7.07,21.1,21.1,0,0,0-3.69-4.86l3.06-6.4a22.18,22.18,0,0,1,3.54,5.57c.7,2,1.06,5.35,1.06,10Zm-9.19-35.13-2.94,5.61-6.48-3.34,3.06-5.65Zm8.95-3.65-2.9,5.69-6.44-3.3,3-5.69Z"/><path class="cls-3" d="M991.62,1220.36q0,8.75-5.14,12.87-5.54,4.44-17.86,4.44-7.85,0-12-2.75-4.54-3-4.55-9.26a29.3,29.3,0,0,1,.82-6.83,48.74,48.74,0,0,1,2.24-6.95q.87-2.12,3-6.52l1.57.71A55.45,55.45,0,0,0,956,1215a22.88,22.88,0,0,0-.88,6,8.6,8.6,0,0,0,3.47,7.4q3.48,2.52,9.92,2.53a31.23,31.23,0,0,0,13.14-2.63q7.11-3.26,7.11-9.11a22.87,22.87,0,0,0-1.18-7.46,16.41,16.41,0,0,0-2.9-5.33l3.25-8a20.36,20.36,0,0,1,2.87,6.48,39.34,39.34,0,0,1,.78,8.75Zm-14.44-30.07-3.06,5.69-6.36-3.29,2.9-5.73Z"/><path class="cls-3" d="M1034.29,1220.36h-3a12.12,12.12,0,0,1-4.32-.69,11.47,11.47,0,0,1-3.3-1.94,11.5,11.5,0,0,1-3.21,1.92,17.14,17.14,0,0,1-5.5.71h-2.55a11.16,11.16,0,0,1-4.08-.79,22.41,22.41,0,0,1-3.3-1.68,13.1,13.1,0,0,1-3.45,1.94,17.68,17.68,0,0,1-5.11.53h-7.57v-6.83h7.57a13.38,13.38,0,0,0,4.56-.55,3.52,3.52,0,0,0,2.27-3.61c0-.76,0-1.52-.11-2.28a22.83,22.83,0,0,0-.44-2.55l1.61-2.36a54.39,54.39,0,0,0,1.81,5.26,13.64,13.64,0,0,0,2.75,4.32,5.94,5.94,0,0,0,4.31,1.77h2.63a8.27,8.27,0,0,0,4.36-.9,3.6,3.6,0,0,0,1.57-3.26,16.5,16.5,0,0,0-.16-2.36c-.1-.76-.25-1.58-.43-2.47l1.65-2.36.82,3.69c.71,2.91,1.57,4.92,2.59,6.05a4.63,4.63,0,0,0,3.62,1.49,2.31,2.31,0,0,0,1.7-.65,2.21,2.21,0,0,0,.65-1.67,8.44,8.44,0,0,0-1.61-4.63q-.27-.39-1.92-2.55l2.55-4.28a19.09,19.09,0,0,1,2.2,4.2,24,24,0,0,1,.86,7.11Zm-12.52-32.11-3,5.69-6.36-3.3,2.9-5.69Zm1.3-10.52-3,5.73-6.28-3.37,2.91-5.73Zm7.73,7-3.06,5.65-6.36-3.38,2.94-5.61Z"/><path class="cls-3" d="M1053.92,1220.36h-22.38v-6.83h19.51a17.7,17.7,0,0,0-1.1-7.07,20.81,20.81,0,0,0-3.69-4.86l3.07-6.4a22.37,22.37,0,0,1,3.53,5.57c.7,2,1.06,5.35,1.06,10Zm-9.19-35.13-2.94,5.61-6.48-3.34,3.06-5.65Zm9-3.65-2.9,5.69-6.44-3.3,3-5.69Z"/><text class="cls-4" transform="translate(137.13 1007.63)">TECHNI TRUST</text><text class="cls-5" transform="translate(281.58 1120.34)">Technical Services</text></svg>