<svg id="Layer_1" data-name="Layer 1" xmlns="http://www.w3.org/2000/svg" xmlns:xlink="http://www.w3.org/1999/xlink" viewBox="0 0 1296 1296"><defs><style>.cls-1{fill:#333;}.cls-2{fill:url(#linear-gradient);}.cls-3{fill:url(#linear-gradient-2);}.cls-4{fill:#e6e6e6;}.cls-5{font-size:148.28px;}.cls-5,.cls-6{fill:#fff;font-family:TwCenMT-Regular, Tw Cen MT;}.cls-6{font-size:86.29px;}</style><linearGradient id="linear-gradient" x1="354.37" y1="439.86" x2="790.02" y2="439.86" gradientUnits="userSpaceOnUse"><stop offset="0" stop-color="#ff7300"/><stop offset="0.16" stop-color="#ff7c07"/><stop offset="0.43" stop-color="#ff961c"/><stop offset="0.77" stop-color="#ffbf3c"/><stop offset="1" stop-color="#ffde55"/></linearGradient><linearGradient id="linear-gradient-2" x1="654.02" y1="533.51" x2="937.89" y2="533.51" xlink:href="#linear-gradient"/></defs><rect class="cls-1" x="0.17" y="1.12" width="1295.65" height="1293.76"/><path class="cls-2" d="M646,319.55h0V708.68h0a147.6,147.6,0,0,1-147.6-147.6V319.55h-144a148.5,148.5,0,0,1,148.5-148.5H785.55a4.47,4.47,0,0,1,4.47,4.47h0A144,144,0,0,1,646,319.55Z"/><path class="cls-3" d="M747.87,455.11h0V708.68h0a96.18,96.18,0,0,0,96.18-96.18V455.11h93.84a96.76,96.76,0,0,0-96.76-96.76H656.93a2.91,2.91,0,0,0-2.91,2.91h0A93.84,93.84,0,0,0,747.87,455.11Z"/><path class="cls-4" d="M330.24,1143.38h-3.88a39.47,39.47,0,0,0-9.46,1c-3.42.85-5.12,2.07-5.12,3.65a16,16,0,0,0,.73,4.6c.49,1.63,1,3.29,1.5,5a16,16,0,0,1,.77,4.6,12.82,12.82,0,0,1-.18,2.25c-.12.67-.33,1.56-.64,2.64-.56-1.8-1.12-3.61-1.66-5.41q-1.57-5.16-2.32-7.8a30.44,30.44,0,0,1-1.17-5,8.8,8.8,0,0,1,7.11-9.72,51.28,51.28,0,0,1,8.64-1.44c-1.37-1.39-2.21-2.21-2.54-2.48a5.48,5.48,0,0,0-3.36-1.3,3.71,3.71,0,0,0-2.06.65,10.61,10.61,0,0,0-1.89,1.8l-1.5-.95a14,14,0,0,1,2.22-3.91,6.21,6.21,0,0,1,4.86-2.42,6.73,6.73,0,0,1,4,1.5,18.65,18.65,0,0,1,3.4,3.46q.84,1.08,2.51,3.65Z"/><path class="cls-4" d="M336.31,1152.94v-6.69H343v6.69Z"/><path class="cls-4" d="M371.37,1143.38h-3.88a39.52,39.52,0,0,0-9.46,1q-5.11,1.27-5.12,3.65a16,16,0,0,0,.73,4.6c.49,1.63,1,3.29,1.5,5a16,16,0,0,1,.77,4.6,12.82,12.82,0,0,1-.18,2.25c-.12.67-.33,1.56-.64,2.64-.56-1.8-1.12-3.61-1.66-5.41-1-3.44-1.82-6-2.32-7.8a30.44,30.44,0,0,1-1.17-5,8.82,8.82,0,0,1,7.11-9.72,51.62,51.62,0,0,1,8.65-1.44c-1.37-1.39-2.22-2.21-2.55-2.48a5.48,5.48,0,0,0-3.36-1.3,3.66,3.66,0,0,0-2.05.65,10.28,10.28,0,0,0-1.9,1.8l-1.5-.95a14.48,14.48,0,0,1,2.22-3.91,6.21,6.21,0,0,1,4.86-2.42,6.78,6.78,0,0,1,4.05,1.5,18.32,18.32,0,0,1,3.39,3.46q.84,1.08,2.51,3.65Z"/><path class="cls-4" d="M377.44,1152.94v-6.69h6.68v6.69Z"/><path class="cls-4" d="M412.47,1143.38H397.86a5.56,5.56,0,0,1-3.35-1.08,3.08,3.08,0,0,1-1.48-2.54,17.06,17.06,0,0,1,.13-2.25,14.27,14.27,0,0,1,.49-2.22h.75a3.07,3.07,0,0,0,1.3,1.92,4,4,0,0,0,2.16.49h12.62a22.71,22.71,0,0,0-1.63-9.39,10.49,10.49,0,0,0-6.75-5.9l.49-6.33a15.85,15.85,0,0,1,8,8.84,36.05,36.05,0,0,1,1.89,12.78ZM403.83,1105l-2.55,4.73L396,1107l2.41-4.76Z"/><path class="cls-4" d="M456.08,1143.38h-4.66q-2.35,0-4.15-4a33.07,33.07,0,0,1-2.15-7.73,7.73,7.73,0,0,1-2.48,2.83,5.52,5.52,0,0,1-3.16,1,32,32,0,0,1-6.25-.51q-2.49-.51-2.49-1.29c0-1.87,1.21-3.94,3.65-6.21a34.77,34.77,0,0,1,9.13-6c0-.17-.13-.63-.27-1.37a9.74,9.74,0,0,1-.22-1.36,5.25,5.25,0,0,1,.75-2.48,15.07,15.07,0,0,1,1.63-2.29c.22,1.35.44,2.66.67,3.92s.5,2.56.8,3.91l1,5.61a66.22,66.22,0,0,0,1.47,6.85c.67,2.26,1.37,3.39,2.09,3.39h4.66Zm-15.75-36-2.45,4.67-5.38-2.78,2.54-4.69Zm4.37,21.4-.62-3.56a20.9,20.9,0,0,0-4.47,2.11,9.33,9.33,0,0,0-2.74,2.88,7.22,7.22,0,0,0,1.6.46,14.92,14.92,0,0,0,2.51.16A5,5,0,0,0,444.7,1128.8Zm3.06-24.43-2.41,4.73-5.35-2.74,2.48-4.73Z"/><path class="cls-4" d="M472.39,1143.38H453.8v-5.68H470a15,15,0,0,0-.91-5.87,17.91,17.91,0,0,0-3.07-4l2.54-5.32a18.37,18.37,0,0,1,2.94,4.63,27.69,27.69,0,0,1,.88,8.32Zm-7.73,9.49-2.45,4.67-5.38-2.78,2.55-4.69Zm7.44-3-2.42,4.73-5.35-2.74,2.48-4.73Z"/><path class="cls-4" d="M488.7,1143.38H470.11v-5.68h16.21a15,15,0,0,0-.91-5.87,17.91,17.91,0,0,0-3.07-4l2.54-5.32a18.37,18.37,0,0,1,2.94,4.63,27.69,27.69,0,0,1,.88,8.32Zm-2.58-30.14-2.54,4.73-5.29-2.74,2.42-4.76Z"/><path class="cls-4" d="M506.25,1143.38H486.42v-5.68h11.19c1.34,0,2.49,0,3.44-.14a17.3,17.3,0,0,0,3.08-.64,35.76,35.76,0,0,1-7.28-1.53,5.66,5.66,0,0,1-3.75-5.55,12.48,12.48,0,0,1,1.8-6.46q2-3.42,4.92-3.42,3.33,0,5.06,4.24a21,21,0,0,1,1.37,7.93Zm-2.9-34.74-2.55,4.73-5.28-2.74,2.41-4.76Zm0,23.36a21.54,21.54,0,0,0-1.43-3.89c-.89-1.63-2-2.44-3.23-2.44a2.06,2.06,0,0,0-1.57.72,2.43,2.43,0,0,0-.65,1.69,3.3,3.3,0,0,0,2.58,3.33A27,27,0,0,0,503.31,1132Z"/><path class="cls-4" d="M520.08,1143.38H504v-5.68h12.82L512.9,1110l-1.69-.81a21.87,21.87,0,0,1,.39-4.23,19.92,19.92,0,0,1,1.17-3.83l.49.36a3,3,0,0,0,2.12,2.84l3.3,1.3a24.33,24.33,0,0,1-.27,3.49,13.63,13.63,0,0,1-.61,2.78l-1.57-.53,3.85,25.58Z"/><path class="cls-4" d="M531.1,1135.06a13.93,13.93,0,0,1-.94,5.06,34.18,34.18,0,0,1-2.12,4.14l-.59-.33c.07-.63.13-1.35.18-2.18s.08-1.38.08-1.67c0-2.26-.18-5.41-.54-9.47s-.79-8.29-1.28-12.71q-.46-4-1-8.18c.44-1,.93-2,1.49-3.1s1.08-2.15,1.58-3.13q.52,3.72,1.32,10.17t1.26,11.65C530.91,1129.61,531.1,1132.87,531.1,1135.06Z"/><path class="cls-4" d="M600.12,1143.38H569q-6.27,0-10-2.19a9.24,9.24,0,0,1-4.66-8.57,15.57,15.57,0,0,1,1.37-6.2q.49-1.14,2.35-4.34l1,.62c-.48,1-.95,2-1.4,3a11,11,0,0,0-.95,4.14q0,3.86,4,6a19.74,19.74,0,0,0,9.17,1.89h27.63v-.88a17.06,17.06,0,0,0-.88-6,9,9,0,0,0-3-3.93l2.51-5.32c1,1.2,1.53,2,1.73,2.25q2.21,3.66,2.21,10.64Zm-22.8-26.62-2.44,4.67-5.38-2.78L572,1114Zm7.44-3-2.41,4.73-5.35-2.74,2.48-4.73Z"/><path class="cls-4" d="M615.46,1143.38h-4.57a4.23,4.23,0,0,1-3.56-1.79,11.56,11.56,0,0,1-1.77-4.67,62.13,62.13,0,0,1-.93-7.63q-.2-3.69-.41-7.57a54.79,54.79,0,0,0-.56-5.89,12.69,12.69,0,0,0-.93-3.28,8.5,8.5,0,0,0-2-2.74l4-6.32a44.89,44.89,0,0,1,1.79,9.36q.33,3.39.65,16.05.59,5.8,1.7,7.43a2.49,2.49,0,0,0,2,1.37h4.57Z"/><path class="cls-4" d="M641.78,1143.38h-3.39a14.92,14.92,0,0,1-4.93-1,18.53,18.53,0,0,1-5.58-3.13,11.2,11.2,0,0,1-3.86,3.21,14.42,14.42,0,0,1-5.76.9h-5.09v-5.68h5a9.54,9.54,0,0,0,5.29-1.5,12.15,12.15,0,0,0,3.26-3.29,21,21,0,0,1,4.89-5,14,14,0,0,1,4.8-2.42,56.9,56.9,0,0,1,3.58,6.17,14.83,14.83,0,0,1,1.8,6ZM638,1137a17.28,17.28,0,0,0-1.31-3.71,18.87,18.87,0,0,0-2-3.17,5.56,5.56,0,0,0-2.64,1.47,12.06,12.06,0,0,0-1.7,2.31,10.8,10.8,0,0,0,3.32,2.29,13.16,13.16,0,0,0,4,1.24Z"/><path class="cls-4" d="M664.32,1143.38H649.71a5.56,5.56,0,0,1-3.35-1.08,3.08,3.08,0,0,1-1.48-2.54,17.06,17.06,0,0,1,.13-2.25,13.21,13.21,0,0,1,.49-2.22h.75a3.07,3.07,0,0,0,1.3,1.92,4,4,0,0,0,2.16.49h12.62a22.88,22.88,0,0,0-1.63-9.39,10.49,10.49,0,0,0-6.75-5.9l.48-6.33a15.83,15.83,0,0,1,8,8.84,36.05,36.05,0,0,1,1.89,12.78Z"/><path class="cls-4" d="M699.71,1143.38H662v-5.68h26.59q-3.33-2.57-5.61-4a26.22,26.22,0,0,0-5.19-2.61,16.21,16.21,0,0,0-5.35-.91,25.52,25.52,0,0,0-3.36.23,10.59,10.59,0,0,1,2.48-3.88,7.77,7.77,0,0,1,5.61-2.12c2.22,0,4.84,1.08,7.86,3.26q2.25,1.62,7.34,6.19c2.63,2.38,4.42,3.66,5.35,3.85h2ZM684.12,1113l-2.55,4.73-5.28-2.74,2.41-4.76Z"/><path class="cls-4" d="M713.54,1143.38H697.43v-5.68h12.81L706.36,1110l-1.69-.81a21.87,21.87,0,0,1,.39-4.23,19.92,19.92,0,0,1,1.17-3.83l.49.36a3,3,0,0,0,2.12,2.84l3.3,1.3a25.77,25.77,0,0,1-.26,3.49,13.51,13.51,0,0,1-.62,2.78l-1.57-.53,3.85,25.58Z"/><path class="cls-4" d="M727.37,1143.38H711.26v-5.68h12.81L720.19,1110l-1.69-.81a21.87,21.87,0,0,1,.39-4.23,19.92,19.92,0,0,1,1.17-3.83l.49.36a3,3,0,0,0,2.12,2.84l3.3,1.3a25.77,25.77,0,0,1-.26,3.49,13.51,13.51,0,0,1-.62,2.78l-1.57-.53,3.85,25.58Z"/><path class="cls-4" d="M793.59,1143.38H762.47q-6.27,0-10-2.19a9.23,9.23,0,0,1-4.67-8.57,15.57,15.57,0,0,1,1.37-6.2q.49-1.14,2.35-4.34l1,.62c-.48,1-.95,2-1.4,3a11.16,11.16,0,0,0-1,4.14q0,3.86,4,6a19.74,19.74,0,0,0,9.17,1.89H791v-.88a16.83,16.83,0,0,0-.88-6,9,9,0,0,0-3-3.93l2.51-5.32c1,1.2,1.53,2,1.73,2.25q2.22,3.66,2.22,10.64Zm-22.81-26.62-2.44,4.67-5.38-2.78,2.54-4.69Zm7.44-3-2.41,4.73-5.35-2.74,2.48-4.73Z"/><path class="cls-4" d="M829,1143.38h-2.51a10.13,10.13,0,0,1-3.59-.57,9.4,9.4,0,0,1-2.74-1.62,9.47,9.47,0,0,1-2.67,1.6,14.22,14.22,0,0,1-4.57.59h-2.12a9.48,9.48,0,0,1-3.39-.65,18.52,18.52,0,0,1-2.74-1.41,10.41,10.41,0,0,1-2.87,1.62,14.71,14.71,0,0,1-4.24.44h-6.3v-5.68h6.3a11.28,11.28,0,0,0,3.78-.45,2.92,2.92,0,0,0,1.89-3c0-.63,0-1.26-.09-1.9a21.4,21.4,0,0,0-.36-2.12l1.33-2c.61,2,1.11,3.45,1.5,4.37a11.4,11.4,0,0,0,2.29,3.59,5,5,0,0,0,3.59,1.46h2.18a6.86,6.86,0,0,0,3.62-.75,3,3,0,0,0,1.31-2.7,15.48,15.48,0,0,0-.13-2c-.09-.63-.21-1.32-.36-2.06l1.37-2,.68,3.06a12.08,12.08,0,0,0,2.15,5,3.85,3.85,0,0,0,3,1.24,1.85,1.85,0,0,0,1.95-1.93,7,7,0,0,0-1.33-3.85l-1.6-2.12,2.12-3.55a15.31,15.31,0,0,1,1.82,3.49,19.64,19.64,0,0,1,.72,5.9Z"/><path class="cls-4" d="M861.69,1143.38q0,3.58-3.06,7.44a25.5,25.5,0,0,1-6.66,5.84q-3.78,2.34-6.23,2.34a19.86,19.86,0,0,1-4.86-.65,43.5,43.5,0,0,1-4.76-1.53l-4.67-1.76.56-1.31,4.48.87a23.39,23.39,0,0,0,4.23.44,17.22,17.22,0,0,0,8.71-2.68,25,25,0,0,0,7-6.18c1.94-2.49,2.9-4.73,2.9-6.73a11.61,11.61,0,0,0-1.5-5.42,23.2,23.2,0,0,0-3.39-4.7l1.86-5.12a18.63,18.63,0,0,1,4,5,13.63,13.63,0,0,1,1.43,6.26Z"/><path class="cls-4" d="M878,1143.38H859.41v-5.68h16.21a14.79,14.79,0,0,0-.91-5.87,17.91,17.91,0,0,0-3.07-4l2.55-5.32a18.56,18.56,0,0,1,2.93,4.63,27.69,27.69,0,0,1,.88,8.32Zm-7.63-29.19-2.45,4.66-5.38-2.77,2.54-4.7Zm7.44-3-2.42,4.73-5.35-2.74,2.48-4.73Z"/><path class="cls-4" d="M931.69,1143.38q0,7.27-4.27,10.7-4.6,3.69-14.84,3.68-6.52,0-10-2.28-3.79-2.51-3.79-7.7a24.15,24.15,0,0,1,.69-5.67,38.75,38.75,0,0,1,1.86-5.78c.47-1.17,1.3-3,2.48-5.41l1.3.59a46.2,46.2,0,0,0-3,7.4,19.08,19.08,0,0,0-.73,5,7.13,7.13,0,0,0,2.89,6.15c1.92,1.4,4.67,2.1,8.23,2.1a26.07,26.07,0,0,0,10.93-2.18q5.91-2.71,5.9-7.57a18.87,18.87,0,0,0-1-6.2,13.68,13.68,0,0,0-2.41-4.44l2.71-6.68a17.14,17.14,0,0,1,2.38,5.38,32.88,32.88,0,0,1,.65,7.27Zm-12-25-2.55,4.73-5.28-2.74,2.41-4.76Z"/><path class="cls-4" d="M967.15,1143.38h-2.51a10.13,10.13,0,0,1-3.59-.57,9.4,9.4,0,0,1-2.74-1.62,9.37,9.37,0,0,1-2.68,1.6,14.15,14.15,0,0,1-4.56.59H949a9.48,9.48,0,0,1-3.39-.65,18,18,0,0,1-2.74-1.41,10.45,10.45,0,0,1-2.88,1.62,14.67,14.67,0,0,1-4.24.44h-6.29v-5.68h6.29a11.31,11.31,0,0,0,3.79-.45,2.92,2.92,0,0,0,1.89-3,17.41,17.41,0,0,0-.1-1.9,16.79,16.79,0,0,0-.36-2.12l1.34-2c.61,2,1.11,3.45,1.5,4.37a11.58,11.58,0,0,0,2.28,3.59,5,5,0,0,0,3.59,1.46h2.19a6.86,6.86,0,0,0,3.62-.75,3,3,0,0,0,1.3-2.7,13.83,13.83,0,0,0-.13-2c-.08-.63-.2-1.32-.36-2.06l1.37-2,.69,3.06a12,12,0,0,0,2.15,5,3.85,3.85,0,0,0,3,1.24,1.91,1.91,0,0,0,1.42-.54,1.88,1.88,0,0,0,.54-1.39,7.05,7.05,0,0,0-1.34-3.85c-.15-.21-.68-.92-1.6-2.12l2.12-3.55a15.41,15.41,0,0,1,1.83,3.49,19.64,19.64,0,0,1,.72,5.9Zm-10.41-26.68-2.48,4.73-5.28-2.74,2.41-4.73Zm1.08-8.74-2.51,4.76-5.22-2.81,2.41-4.76Zm6.43,5.8-2.55,4.7-5.28-2.81,2.44-4.66Z"/><path class="cls-4" d="M983.46,1143.38H964.87v-5.68h16.21a14.76,14.76,0,0,0-.92-5.87,17.48,17.48,0,0,0-3.06-4l2.54-5.32a18.37,18.37,0,0,1,2.94,4.63,28,28,0,0,1,.88,8.32Zm-7.63-29.19-2.45,4.66-5.38-2.77,2.54-4.7Zm7.43-3-2.41,4.73-5.35-2.74,2.48-4.73Z"/><text class="cls-5" transform="translate(221.58 966.6)">TECHNI TRUST</text><text class="cls-6" transform="translate(341.63 1060.27)">Technical Services</text></svg>